<svg width="253" height="41" viewBox="0 0 253 41" fill="none" xmlns="http://www.w3.org/2000/svg"><path d="M13.861 16.939h-3.42l-.99-2.502H4.52l-.936 2.502H.235L5.581 4.195H8.57l5.292 12.744zM8.605 11.97L7.021 7.597l-1.62 4.374h3.204zm13.671-3.078l-1.71 1.98c-.324-.432-.972-.72-1.566-.72-1.242 0-2.07 1.062-2.07 2.304 0 1.242.81 2.286 2.106 2.286.594 0 1.242-.234 1.602-.666l1.638 1.998c-.738.72-1.998 1.152-3.312 1.152-2.826 0-5.022-1.8-5.022-4.77 0-2.916 2.214-4.77 5.004-4.77 1.278 0 2.628.486 3.33 1.206zm8.693 0l-1.71 1.98c-.324-.432-.972-.72-1.566-.72-1.242 0-2.07 1.062-2.07 2.304 0 1.242.81 2.286 2.106 2.286.594 0 1.242-.234 1.602-.666l1.638 1.998c-.738.72-1.998 1.152-3.312 1.152-2.826 0-5.022-1.8-5.022-4.77 0-2.916 2.214-4.77 5.004-4.77 1.278 0 2.628.486 3.33 1.206zm10.313 3.528c0 2.934-2.268 4.806-4.986 4.806-2.7 0-4.968-1.872-4.968-4.806s2.268-4.734 4.968-4.734c2.718 0 4.986 1.8 4.986 4.734zm-2.844 0c0-1.152-.756-2.286-2.142-2.286s-2.106 1.134-2.106 2.286c0 1.152.738 2.322 2.124 2.322 1.386 0 2.124-1.17 2.124-2.322zm13.1 4.518h-2.843v-1.242h-.036c-.414.792-1.44 1.494-2.7 1.494-2.412 0-3.258-1.872-3.258-3.672V7.975h2.97v4.86c0 1.008.252 1.908 1.332 1.908 1.026 0 1.584-.9 1.584-1.926V7.975h2.952v8.964zm10.806 0h-2.97v-4.896c0-.99-.27-1.89-1.333-1.89-1.043 0-1.583.9-1.583 1.926v4.86h-2.97V7.975h2.861v1.242h.037c.413-.792 1.44-1.494 2.681-1.494 2.413 0 3.276 1.872 3.276 3.672v5.544zm7.185-6.75h-2.106v3.42c0 .828.27 1.26 1.116 1.26.288 0 .648-.054.864-.144l.036 2.16c-.396.144-1.08.27-1.71.27-2.394 0-3.186-1.278-3.186-3.186v-3.78h-1.44V7.975h1.422V5.617h2.898v2.358h2.106v2.214zm4.232-5.076c0 .918-.756 1.62-1.692 1.62-.954 0-1.692-.738-1.692-1.62 0-.864.738-1.62 1.692-1.62.936 0 1.692.72 1.692 1.62zm-.216 11.826h-2.952V7.975h2.952v8.964zm10.834 0h-2.97v-4.896c0-.99-.27-1.89-1.332-1.89-1.044 0-1.584.9-1.584 1.926v4.86h-2.97V7.975h2.862v1.242h.036c.414-.792 1.44-1.494 2.682-1.494 2.412 0 3.276 1.872 3.276 3.672v5.544zm11.38-.846c0 3.51-2.088 5.166-5.275 5.166-1.566 0-3.401-.504-4.608-1.404l1.477-2.106a4.584 4.584 0 002.97 1.134c1.728 0 2.538-1.008 2.538-2.502v-.54h-.055c-.557.72-1.53 1.188-2.718 1.188-2.717 0-4.283-2.124-4.283-4.608 0-2.484 1.566-4.698 4.265-4.698 1.117 0 2.233.45 2.863 1.404h.035V7.975h2.79v8.118zm-2.808-3.69c0-1.224-.846-2.268-2.178-2.268-1.332 0-2.106 1.026-2.106 2.268 0 1.188.773 2.286 2.105 2.286 1.35 0 2.178-1.062 2.178-2.286zm15.825-3.456l-1.62 1.674c-.468-.45-1.152-.81-1.872-.81-.558 0-1.116.198-1.116.72 0 .504.486.648 1.638.9 1.368.306 2.862.99 2.862 2.736 0 2.268-1.998 3.06-3.834 3.06-1.458 0-2.97-.486-3.906-1.386l1.656-1.746c.522.576 1.332 1.008 2.196 1.008.486 0 1.062-.198 1.062-.774 0-.558-.558-.738-1.782-1.026-1.242-.288-2.61-.918-2.61-2.61 0-2.142 2.016-3.006 3.726-3.006 1.332 0 2.718.432 3.6 1.26zm10.74 3.474c0 2.934-2.268 4.806-4.986 4.806-2.7 0-4.968-1.872-4.968-4.806s2.268-4.734 4.968-4.734c2.718 0 4.986 1.8 4.986 4.734zm-2.844 0c0-1.152-.756-2.286-2.142-2.286s-2.106 1.134-2.106 2.286c0 1.152.738 2.322 2.124 2.322 1.386 0 2.124-1.17 2.124-2.322zm10.113-9.252l-.198 2.34a2.732 2.732 0 00-.81-.126c-1.08 0-1.314.864-1.314 1.692v.9h1.998v2.214h-1.998v6.75h-2.952v-6.75h-1.638V7.975h1.638V7.11c0-2.196.864-4.122 3.852-4.122.504 0 1.026.054 1.422.18zm5.308 7.02h-2.106v3.42c0 .828.27 1.26 1.116 1.26.288 0 .648-.054.864-.144l.036 2.16c-.396.144-1.08.27-1.71.27-2.394 0-3.186-1.278-3.186-3.186v-3.78h-1.44V7.975h1.422V5.617h2.898v2.358h2.106v2.214zm15.553-2.214l-3.114 8.964h-2.97l-1.764-5.58h-.036l-1.728 5.58h-2.97l-3.096-8.964h3.186l1.548 5.67h.054l1.602-5.67h2.97l1.656 5.67h.036l1.566-5.67h3.06zm6.086 5.364v-.306h-.378c-1.296 0-2.754.162-2.754 1.224 0 .684.684.918 1.278.918 1.188 0 1.854-.72 1.854-1.836zm-3.924-2.538l-1.494-1.602c1.044-.99 2.538-1.512 3.996-1.512 3.006 0 4.122 1.476 4.122 4.734v4.518h-2.7v-.954h-.054c-.45.738-1.476 1.17-2.538 1.17-1.422 0-3.258-.702-3.258-2.808 0-2.592 3.15-3.024 5.76-3.024v-.144c0-.882-.702-1.296-1.62-1.296-.846 0-1.674.414-2.214.918zm14.407-3.006l-.126 2.592a2.88 2.88 0 00-.756-.09c-1.584 0-2.106 1.296-2.106 2.034v4.608h-2.952V7.975h2.844V9.27h.036c.45-.9 1.332-1.548 2.43-1.548.234 0 .486.018.63.072zm2.896 3.636h3.798c0-.936-.594-1.71-1.764-1.71-1.134 0-1.962.792-2.034 1.71zm6.516 1.134c0 .234 0 .486-.018.702h-6.498c.09.99 1.08 1.692 2.142 1.692.936 0 1.584-.396 1.98-.936l2.052 1.296c-.846 1.224-2.25 1.908-4.068 1.908-2.7 0-4.932-1.71-4.932-4.734 0-2.934 2.124-4.806 4.842-4.806 2.646 0 4.5 1.818 4.5 4.878zm11.371-9.396l-.198 2.34a2.732 2.732 0 00-.81-.126c-1.08 0-1.314.864-1.314 1.692v.9h1.998v2.214h-1.998v6.75h-2.952v-6.75h-1.638V7.975h1.638V7.11c0-2.196.864-4.122 3.852-4.122.504 0 1.026.054 1.422.18zm9.941 9.252c0 2.934-2.268 4.806-4.986 4.806-2.7 0-4.968-1.872-4.968-4.806s2.268-4.734 4.968-4.734c2.718 0 4.986 1.8 4.986 4.734zm-2.844 0c0-1.152-.756-2.286-2.142-2.286s-2.106 1.134-2.106 2.286c0 1.152.738 2.322 2.124 2.322 1.386 0 2.124-1.17 2.124-2.322zm10.293-4.626l-.126 2.592a2.88 2.88 0 00-.756-.09c-1.584 0-2.106 1.296-2.106 2.034v4.608h-2.952V7.975h2.844V9.27h.036c.45-.9 1.332-1.548 2.43-1.548.234 0 .486.018.63.072zM8.533 28.947l-1.62 1.674c-.468-.45-1.152-.81-1.872-.81-.558 0-1.116.198-1.116.72 0 .504.486.648 1.638.9 1.368.306 2.862.99 2.862 2.736 0 2.268-1.998 3.06-3.834 3.06-1.458 0-2.97-.486-3.906-1.386l1.656-1.746c.522.576 1.332 1.008 2.196 1.008.486 0 1.062-.198 1.062-.774 0-.558-.558-.738-1.782-1.026-1.242-.288-2.61-.918-2.61-2.61 0-2.142 2.016-3.006 3.726-3.006 1.332 0 2.718.432 3.6 1.26zm15.636 7.992h-2.952v-4.896c0-1.026-.234-1.89-1.278-1.89-1.008 0-1.494.936-1.494 1.944v4.842h-2.952v-5.112c0-1.026-.396-1.674-1.278-1.674-.936 0-1.476.846-1.476 1.926v4.86H9.77v-8.964h2.862v1.242h.036c.414-.756 1.332-1.494 2.682-1.494 1.296 0 2.196.558 2.7 1.53.594-.936 1.53-1.53 2.862-1.53 2.43 0 3.258 1.98 3.258 3.672v5.544zm7.161-3.6v-.306h-.378c-1.296 0-2.754.162-2.754 1.224 0 .684.684.918 1.278.918 1.188 0 1.854-.72 1.854-1.836zM27.406 30.8l-1.494-1.602c1.044-.99 2.538-1.512 3.996-1.512 3.006 0 4.122 1.476 4.122 4.734v4.518h-2.7v-.954h-.054c-.45.738-1.476 1.17-2.538 1.17-1.422 0-3.258-.702-3.258-2.808 0-2.592 3.15-3.024 5.76-3.024v-.144c0-.882-.702-1.296-1.62-1.296-.846 0-1.674.414-2.214.918zm11.492 6.138h-2.989V23.33h2.989v13.608zm5 0h-2.987V23.33h2.988v13.608zm16.108-4.518c0 2.502-1.566 4.77-4.266 4.77-1.188 0-2.358-.522-2.934-1.422h-.036v1.17h-2.718V23.33h2.952v5.598h.036c.504-.594 1.422-1.206 2.736-1.206 2.61 0 4.23 2.196 4.23 4.698zm-2.844 0c0-1.152-.72-2.286-2.124-2.286-1.332 0-2.16 1.17-2.16 2.304 0 1.17.828 2.304 2.16 2.304 1.404 0 2.124-1.152 2.124-2.322zm13.107 4.518h-2.844v-1.242h-.036c-.414.792-1.44 1.494-2.7 1.494-2.412 0-3.258-1.872-3.258-3.672v-5.544h2.97v4.86c0 1.008.252 1.908 1.332 1.908 1.026 0 1.584-.9 1.584-1.926v-4.842h2.952v8.964zm8.843-7.992l-1.62 1.674c-.468-.45-1.152-.81-1.872-.81-.558 0-1.116.198-1.116.72 0 .504.486.648 1.638.9 1.368.306 2.862.99 2.862 2.736 0 2.268-1.998 3.06-3.834 3.06-1.458 0-2.97-.486-3.906-1.386l1.656-1.746c.522.576 1.332 1.008 2.196 1.008.486 0 1.062-.198 1.062-.774 0-.558-.558-.738-1.782-1.026-1.242-.288-2.61-.918-2.61-2.61 0-2.142 2.016-3.006 3.726-3.006 1.332 0 2.718.432 3.6 1.26zm4.44-3.834c0 .918-.756 1.62-1.692 1.62-.954 0-1.692-.738-1.692-1.62 0-.864.738-1.62 1.692-1.62.936 0 1.692.72 1.692 1.62zm-.216 11.826h-2.952v-8.964h2.952v8.964zm10.835 0H91.2v-4.896c0-.99-.27-1.89-1.332-1.89-1.044 0-1.585.9-1.585 1.926v4.86h-2.97v-8.964h2.863v1.242h.035c.414-.792 1.44-1.494 2.682-1.494 2.412 0 3.276 1.872 3.276 3.672v5.544zm4.251-5.508h3.798c0-.936-.594-1.71-1.764-1.71-1.134 0-1.962.792-2.034 1.71zm6.516 1.134c0 .234 0 .486-.018.702h-6.498c.09.99 1.08 1.692 2.142 1.692.936 0 1.584-.396 1.98-.936l2.052 1.296c-.846 1.224-2.25 1.908-4.068 1.908-2.7 0-4.932-1.71-4.932-4.734 0-2.934 2.124-4.806 4.842-4.806 2.646 0 4.5 1.818 4.5 4.878zm8.365-3.618l-1.62 1.674c-.468-.45-1.152-.81-1.872-.81-.558 0-1.116.198-1.116.72 0 .504.486.648 1.638.9 1.368.306 2.862.99 2.862 2.736 0 2.268-1.998 3.06-3.834 3.06-1.458 0-2.97-.486-3.906-1.386l1.656-1.746c.522.576 1.332 1.008 2.196 1.008.486 0 1.062-.198 1.062-.774 0-.558-.558-.738-1.782-1.026-1.242-.288-2.61-.918-2.61-2.61 0-2.142 2.016-3.006 3.726-3.006 1.332 0 2.718.432 3.6 1.26zm8.13 0l-1.62 1.674c-.468-.45-1.152-.81-1.872-.81-.558 0-1.116.198-1.116.72 0 .504.486.648 1.638.9 1.368.306 2.862.99 2.862 2.736 0 2.268-1.998 3.06-3.834 3.06-1.458 0-2.97-.486-3.906-1.386l1.656-1.746c.522.576 1.332 1.008 2.196 1.008.486 0 1.062-.198 1.062-.774 0-.558-.558-.738-1.782-1.026-1.242-.288-2.61-.918-2.61-2.61 0-2.142 2.016-3.006 3.726-3.006 1.332 0 2.718.432 3.6 1.26zm3.612 2.484h3.798c0-.936-.594-1.71-1.764-1.71-1.134 0-1.962.792-2.034 1.71zm6.516 1.134c0 .234 0 .486-.018.702h-6.498c.09.99 1.08 1.692 2.142 1.692.936 0 1.584-.396 1.98-.936l2.052 1.296c-.846 1.224-2.25 1.908-4.068 1.908-2.7 0-4.932-1.71-4.932-4.734 0-2.934 2.124-4.806 4.842-4.806 2.646 0 4.5 1.818 4.5 4.878zm8.365-3.618l-1.62 1.674c-.468-.45-1.152-.81-1.872-.81-.558 0-1.116.198-1.116.72 0 .504.486.648 1.638.9 1.368.306 2.862.99 2.862 2.736 0 2.268-1.998 3.06-3.834 3.06-1.458 0-2.97-.486-3.906-1.386l1.656-1.746c.522.576 1.332 1.008 2.196 1.008.486 0 1.062-.198 1.062-.774 0-.558-.558-.738-1.782-1.026-1.242-.288-2.61-.918-2.61-2.61 0-2.142 2.016-3.006 3.726-3.006 1.332 0 2.718.432 3.6 1.26z" fill="#fff"/></svg>