<svg width="253" height="82" viewBox="0 0 253 82" fill="none" xmlns="http://www.w3.org/2000/svg"><path d="M11.467 8.119c0 2.952-2.394 4.014-5.058 4.014H4.88v4.806H1.801V4.195h4.68c2.79 0 4.986 1.008 4.986 3.924zm-3.078.018c0-1.224-1.062-1.458-2.16-1.458H4.88v3.006h1.296c1.152 0 2.214-.342 2.214-1.548zM21.4 12.42c0 2.934-2.268 4.806-4.986 4.806-2.7 0-4.968-1.872-4.968-4.806s2.268-4.734 4.968-4.734c2.718 0 4.986 1.8 4.986 4.734zm-2.844 0c0-1.152-.756-2.286-2.142-2.286s-2.106 1.134-2.106 2.286c0 1.152.738 2.322 2.124 2.322 1.386 0 2.124-1.17 2.124-2.322zm18.88-4.446l-3.115 8.964h-2.97l-1.764-5.58h-.036l-1.728 5.58h-2.97l-3.096-8.964h3.186l1.548 5.67h.054l1.602-5.67h2.97l1.656 5.67h.036l1.566-5.67h3.06zm3.169 3.456h3.798c0-.936-.594-1.71-1.764-1.71-1.134 0-1.962.792-2.034 1.71zm6.516 1.134c0 .234 0 .486-.018.702h-6.498c.09.99 1.08 1.692 2.142 1.692.936 0 1.584-.396 1.98-.936l2.052 1.296c-.846 1.224-2.25 1.908-4.068 1.908-2.7 0-4.932-1.71-4.932-4.734 0-2.934 2.124-4.806 4.842-4.806 2.646 0 4.5 1.818 4.5 4.878zm7.41-4.77l-.125 2.592a2.88 2.88 0 00-.756-.09c-1.584 0-2.106 1.296-2.106 2.034v4.608h-2.952V7.975h2.844V9.27h.036c.45-.9 1.332-1.548 2.43-1.548.234 0 .486.018.63.072zm14.05.18l-4.015 10.314c-.72 1.872-1.692 2.97-3.942 2.97-.558 0-1.188-.09-1.62-.198l.324-2.484c.288.09.666.162.954.162.918 0 1.224-.432 1.512-1.206l.288-.738-3.744-8.82h3.276l1.998 5.76h.054l1.782-5.76h3.132zm10.284 4.446c0 2.934-2.268 4.806-4.986 4.806-2.7 0-4.968-1.872-4.968-4.806s2.268-4.734 4.968-4.734c2.718 0 4.986 1.8 4.986 4.734zm-2.844 0c0-1.152-.756-2.286-2.142-2.286s-2.106 1.134-2.106 2.286c0 1.152.738 2.322 2.124 2.322 1.386 0 2.124-1.17 2.124-2.322zm13.101 4.518h-2.844v-1.242h-.036c-.414.792-1.44 1.494-2.7 1.494-2.412 0-3.258-1.872-3.258-3.672V7.975h2.97v4.86c0 1.008.252 1.908 1.332 1.908 1.026 0 1.584-.9 1.584-1.926V7.975h2.952v8.964zm7.889-9.144l-.126 2.592a2.88 2.88 0 00-.756-.09c-1.584 0-2.106 1.296-2.106 2.034v4.608H91.07V7.975h2.844V9.27h.036c.45-.9 1.332-1.548 2.43-1.548.234 0 .486.018.63.072zm14.967 4.626c0 2.502-1.566 4.77-4.266 4.77-1.188 0-2.358-.522-2.934-1.422h-.036v1.17h-2.718V3.33h2.952v5.598h.036c.504-.594 1.422-1.206 2.736-1.206 2.61 0 4.23 2.196 4.23 4.698zm-2.844 0c0-1.152-.72-2.286-2.124-2.286-1.332 0-2.16 1.17-2.16 2.304 0 1.17.828 2.304 2.16 2.304 1.404 0 2.124-1.152 2.124-2.322zm13.107 4.518h-2.844v-1.242h-.036c-.414.792-1.44 1.494-2.7 1.494-2.412 0-3.258-1.872-3.258-3.672V7.975h2.97v4.86c0 1.008.252 1.908 1.332 1.908 1.026 0 1.584-.9 1.584-1.926V7.975h2.952v8.964zm8.843-7.992l-1.62 1.674c-.468-.45-1.152-.81-1.872-.81-.558 0-1.116.198-1.116.72 0 .504.486.648 1.638.9 1.368.306 2.862.99 2.862 2.736 0 2.268-1.998 3.06-3.834 3.06-1.458 0-2.97-.486-3.906-1.386l1.656-1.746c.522.576 1.332 1.008 2.196 1.008.486 0 1.062-.198 1.062-.774 0-.558-.558-.738-1.782-1.026-1.242-.288-2.61-.918-2.61-2.61 0-2.142 2.016-3.006 3.726-3.006 1.332 0 2.718.432 3.6 1.26zm4.44-3.834c0 .918-.756 1.62-1.692 1.62-.954 0-1.692-.738-1.692-1.62 0-.864.738-1.62 1.692-1.62.936 0 1.692.72 1.692 1.62zm-.216 11.826h-2.952V7.975h2.952v8.964zm10.834 0h-2.97v-4.896c0-.99-.27-1.89-1.332-1.89-1.044 0-1.584.9-1.584 1.926v4.86h-2.97V7.975h2.862v1.242h.036c.414-.792 1.44-1.494 2.682-1.494 2.412 0 3.276 1.872 3.276 3.672v5.544zm4.252-5.508h3.798c0-.936-.594-1.71-1.764-1.71-1.134 0-1.962.792-2.034 1.71zm6.516 1.134c0 .234 0 .486-.018.702h-6.498c.09.99 1.08 1.692 2.142 1.692.936 0 1.584-.396 1.98-.936l2.052 1.296c-.846 1.224-2.25 1.908-4.068 1.908-2.7 0-4.932-1.71-4.932-4.734 0-2.934 2.124-4.806 4.842-4.806 2.646 0 4.5 1.818 4.5 4.878zm8.364-3.618l-1.62 1.674c-.468-.45-1.152-.81-1.872-.81-.558 0-1.116.198-1.116.72 0 .504.486.648 1.638.9 1.368.306 2.862.99 2.862 2.736 0 2.268-1.998 3.06-3.834 3.06-1.458 0-2.97-.486-3.906-1.386l1.656-1.746c.522.576 1.332 1.008 2.196 1.008.486 0 1.062-.198 1.062-.774 0-.558-.558-.738-1.782-1.026-1.242-.288-2.61-.918-2.61-2.61 0-2.142 2.016-3.006 3.726-3.006 1.332 0 2.718.432 3.6 1.26zm8.131 0l-1.62 1.674c-.468-.45-1.152-.81-1.872-.81-.558 0-1.116.198-1.116.72 0 .504.486.648 1.638.9 1.368.306 2.862.99 2.862 2.736 0 2.268-1.998 3.06-3.834 3.06-1.458 0-2.97-.486-3.906-1.386l1.656-1.746c.522.576 1.332 1.008 2.196 1.008.486 0 1.062-.198 1.062-.774 0-.558-.558-.738-1.782-1.026-1.242-.288-2.61-.918-2.61-2.61 0-2.142 2.016-3.006 3.726-3.006 1.332 0 2.718.432 3.6 1.26zM.739 28.407h1.836l1.926 6.516h.036l2.034-6.516h1.782l2.07 6.516h.036l1.926-6.516h1.782l-2.826 8.532H9.577L7.471 30.53h-.036l-2.088 6.408H3.583L.74 28.407zm16.478 0v8.532h-1.692v-8.532h1.692zm.288-3.078c0 .612-.522 1.08-1.134 1.08-.612 0-1.116-.486-1.116-1.08 0-.612.504-1.098 1.116-1.098.612 0 1.134.468 1.134 1.098zm6.476 3.078v1.386h-2.268v4.446c0 1.026.36 1.44 1.206 1.44.306 0 .702-.072.99-.216l.054 1.386a4.389 4.389 0 01-1.44.234c-1.602 0-2.484-.9-2.484-2.664v-4.626h-1.638v-1.386h1.638v-2.448h1.674v2.448h2.268zm3.116 1.296h.036c.396-.846 1.476-1.53 2.7-1.53 2.196 0 3.186 1.566 3.186 3.474v5.292h-1.692v-4.716c0-1.386-.36-2.61-1.926-2.61-1.332 0-2.304 1.116-2.304 2.808v4.518h-1.692V23.33h1.692v6.372zm26.118 5.742v1.494h-7.488c-3.888 0-6.624-2.574-6.624-6.534 0-3.834 2.826-6.534 6.642-6.534 3.78 0 6.588 2.7 6.588 6.534 0 2.268-1.062 4.032-2.628 5.004v.036h3.51zm-12.186-5.04c0 2.79 1.836 4.968 4.698 4.968 2.808 0 4.698-2.178 4.698-4.968 0-2.718-1.8-4.968-4.68-4.968-2.862 0-4.716 2.25-4.716 4.968zm21.108 6.534h-1.602a20.393 20.393 0 01-.072-1.404h-.036c-.432.9-1.548 1.638-2.79 1.638-2.196 0-3.186-1.566-3.186-3.474v-5.292h1.692v4.716c0 1.404.378 2.628 1.944 2.628 1.35 0 2.286-1.116 2.286-2.808v-4.536h1.692v6.696c0 .45.018 1.278.072 1.836zm4.213-8.532v8.532h-1.692v-8.532h1.692zm.288-3.078c0 .612-.522 1.08-1.134 1.08-.612 0-1.116-.486-1.116-1.08 0-.612.504-1.098 1.116-1.098.612 0 1.134.468 1.134 1.098zm9.5 4.248l-1.224.99c-.36-.558-1.152-.972-1.962-.972-1.764 0-2.79 1.44-2.79 3.078 0 1.62 1.026 3.078 2.808 3.078.864 0 1.602-.36 2.052-.936l1.134 1.026c-.72.828-1.818 1.332-3.186 1.332-2.628 0-4.59-1.782-4.59-4.5 0-2.682 1.944-4.5 4.554-4.5 1.206 0 2.502.486 3.204 1.404zm3.063-6.246v8.784h.054l3.582-3.708h2.268l-3.996 3.87 4.338 4.662h-2.34l-3.852-4.428H79.2v4.428h-1.692V23.33H79.2zm7.494 13.608V24.195h4.392c1.926 0 3.996.792 3.996 3.222 0 1.404-.9 2.412-2.232 2.772v.036c1.638.198 2.826 1.314 2.826 3.096 0 2.448-2.124 3.618-4.788 3.618h-4.194zm1.782-11.25v3.888h2.322c1.368 0 2.502-.594 2.502-1.98 0-1.368-1.098-1.908-2.79-1.908h-2.034zm0 5.4v4.338h2.232c1.512 0 3.168-.468 3.168-2.196 0-1.494-1.062-2.142-3.006-2.142h-2.394zm17.957 1.566c0 2.628-1.998 4.518-4.608 4.518-2.61 0-4.59-1.89-4.59-4.518s1.98-4.482 4.59-4.482 4.608 1.854 4.608 4.482zm-1.764 0c0-1.62-1.008-3.078-2.844-3.078-1.818 0-2.844 1.458-2.844 3.078 0 1.62 1.026 3.096 2.844 3.096 1.836 0 2.844-1.476 2.844-3.096zm12.39 0c0 2.628-1.998 4.518-4.608 4.518-2.61 0-4.59-1.89-4.59-4.518s1.98-4.482 4.59-4.482 4.608 1.854 4.608 4.482zm-1.764 0c0-1.62-1.008-3.078-2.844-3.078-1.818 0-2.844 1.458-2.844 3.078 0 1.62 1.026 3.096 2.844 3.096 1.836 0 2.844-1.476 2.844-3.096zm5.478-9.324v8.784h.054l3.582-3.708h2.268l-3.996 3.87 4.338 4.662h-2.34l-3.852-4.428h-.054v4.428h-1.692V23.33h1.692zm13.077 6.246l-1.17.99c-.378-.612-1.116-1.062-1.98-1.062-.774 0-1.584.306-1.584 1.116 0 .72.648.99 1.944 1.278 1.62.36 2.862 1.026 2.862 2.52 0 2.016-1.674 2.754-3.402 2.754-1.296 0-2.628-.504-3.438-1.53l1.206-1.026a2.803 2.803 0 002.268 1.188c.846 0 1.692-.306 1.692-1.242 0-.792-.774-1.08-2.232-1.422-1.134-.27-2.484-.756-2.484-2.358 0-1.836 1.602-2.61 3.222-2.61 1.206 0 2.484.486 3.096 1.404z" fill="#fff"/></svg>